<?xml version="1.0" encoding="UTF-8" standalone="no"?>
<!DOCTYPE svg PUBLIC "-//W3C//DTD SVG 1.1//EN"
 "http://www.w3.org/Graphics/SVG/1.1/DTD/svg11.dtd">
<!-- Generated by graphviz version 15.0.0 (20260523.1842)
 -->
<!-- Title: RuleBasedClaimAnalyzer Architecture Pages: 1 -->
<svg width="2446pt" height="781pt"
 viewBox="0.00 0.00 2446.00 781.00" xmlns="http://www.w3.org/2000/svg" xmlns:xlink="http://www.w3.org/1999/xlink">
<g id="graph0" class="graph" transform="scale(1 1) rotate(0) translate(144 637)">
<title>RuleBasedClaimAnalyzer Architecture</title>
<polygon fill="white" stroke="none" points="-144,144 -144,-637 2302.15,-637 2302.15,144 -144,144"/>
<text xml:space="preserve" text-anchor="middle" x="1079.08" y="-7.9" font-family="Arial" font-size="18.00" fill="#2d3436">RuleBasedClaimAnalyzer Architecture</text>
<g id="clust1" class="cluster">
<title>cluster_Stage 1: PDF Processing</title>
<path fill="#e5f5fd" stroke="#aeb6be" d="M202.55,-164C202.55,-164 455.15,-164 455.15,-164 461.15,-164 467.15,-170 467.15,-176 467.15,-176 467.15,-358 467.15,-358 467.15,-364 461.15,-370 455.15,-370 455.15,-370 202.55,-370 202.55,-370 196.55,-370 190.55,-364 190.55,-358 190.55,-358 190.55,-176 190.55,-176 190.55,-170 196.55,-164 202.55,-164"/>
<text xml:space="preserve" text-anchor="middle" x="263.05" y="-354.6" font-family="Sans-Serif" font-size="12.00" fill="#2d3436">Stage 1: PDF Processing</text>
</g>
<g id="clust2" class="cluster">
<title>cluster_Stage 2: Claim Processing</title>
<path fill="#e8f5e9" stroke="#aeb6be" d="M615.15,-37C615.15,-37 875.75,-37 875.75,-37 881.75,-37 887.75,-43 887.75,-49 887.75,-49 887.75,-473 887.75,-473 887.75,-479 881.75,-485 875.75,-485 875.75,-485 615.15,-485 615.15,-485 609.15,-485 603.15,-479 603.15,-473 603.15,-473 603.15,-49 603.15,-49 603.15,-43 609.15,-37 615.15,-37"/>
<text xml:space="preserve" text-anchor="middle" x="679.78" y="-469.6" font-family="Sans-Serif" font-size="12.00" fill="#2d3436">Stage 2: Claim Processing</text>
</g>
<g id="clust3" class="cluster">
<title>cluster_Detection Methods</title>
<path fill="#ebf3e7" stroke="#aeb6be" d="M623.15,-45C623.15,-45 715.95,-45 715.95,-45 721.95,-45 727.95,-51 727.95,-57 727.95,-57 727.95,-441 727.95,-441 727.95,-447 721.95,-453 715.95,-453 715.95,-453 623.15,-453 623.15,-453 617.15,-453 611.15,-447 611.15,-441 611.15,-441 611.15,-57 611.15,-57 611.15,-51 617.15,-45 623.15,-45"/>
<text xml:space="preserve" text-anchor="middle" x="667.9" y="-437.6" font-family="Sans-Serif" font-size="12.00" fill="#2d3436">Detection Methods</text>
</g>
<g id="clust4" class="cluster">
<title>cluster_Stage 3: Trust Calculation</title>
<path fill="#fff3e0" stroke="#aeb6be" d="M942.75,-161C942.75,-161 1834.55,-161 1834.55,-161 1840.55,-161 1846.55,-167 1846.55,-173 1846.55,-173 1846.55,-325 1846.55,-325 1846.55,-331 1840.55,-337 1834.55,-337 1834.55,-337 942.75,-337 942.75,-337 936.75,-337 930.75,-331 930.75,-325 930.75,-325 930.75,-173 930.75,-173 930.75,-167 936.75,-161 942.75,-161"/>
<text xml:space="preserve" text-anchor="middle" x="1006.63" y="-321.6" font-family="Sans-Serif" font-size="12.00" fill="#2d3436">Stage 3: Trust Calculation</text>
</g>
<!-- 5ffaa5a1e6d64fe7858ad3ae0f09f982 -->
<g id="node1" class="node">
<title>5ffaa5a1e6d64fe7858ad3ae0f09f982</title>
<image xlink:href="D:\thesis\thesis-claim-analyzer\venv\lib\site-packages\resources/programming/flowchart\document.png" width="100.8px" height="100.8px" preserveAspectRatio="xMinYMin meet" x="8.52651e-14" y="-305.4"/>
<text xml:space="preserve" text-anchor="middle" x="50.4" y="-190.75" font-family="Sans-Serif" font-size="13.00" fill="#2d3436">PDF Input</text>
</g>
<!-- 8ae852df5a2f4ef4b46b1190ff5e9f16 -->
<g id="node2" class="node">
<title>8ae852df5a2f4ef4b46b1190ff5e9f16</title>
<image xlink:href="D:\thesis\thesis-claim-analyzer\venv\lib\site-packages\resources/programming/flowchart\action.png" width="100.8px" height="100.8px" preserveAspectRatio="xMinYMin meet" x="198.55" y="-305.4"/>
<text xml:space="preserve" text-anchor="middle" x="248.95" y="-192.85" font-family="Sans-Serif" font-size="13.00" fill="#2d3436">PDF Parser</text>
<text xml:space="preserve" text-anchor="middle" x="248.95" y="-176.35" font-family="Sans-Serif" font-size="13.00" fill="#2d3436">(PyMuPDF)</text>
</g>
<!-- 5ffaa5a1e6d64fe7858ad3ae0f09f982&#45;&gt;8ae852df5a2f4ef4b46b1190ff5e9f16 -->
<g id="edge9" class="edge">
<title>5ffaa5a1e6d64fe7858ad3ae0f09f982&#45;&gt;8ae852df5a2f4ef4b46b1190ff5e9f16</title>
<path fill="none" stroke="#666666" stroke-width="2" d="M100.76,-255C100.76,-255 185.62,-255 185.62,-255"/>
<polygon fill="#666666" stroke="#666666" stroke-width="2" points="185.62,-258.5 195.62,-255 185.62,-251.5 185.62,-258.5"/>
<text xml:space="preserve" text-anchor="middle" x="149.68" y="-259.15" font-family="Sans-Serif" font-size="13.00" fill="#2d3436">Upload</text>
</g>
<!-- e8926e649c23471f9754a160bd0dc1ae -->
<g id="node3" class="node">
<title>e8926e649c23471f9754a160bd0dc1ae</title>
<image xlink:href="D:\thesis\thesis-claim-analyzer\venv\lib\site-packages\resources/programming/flowchart\action.png" width="100.8px" height="100.8px" preserveAspectRatio="xMinYMin meet" x="358.35" y="-305.4"/>
<text xml:space="preserve" text-anchor="middle" x="408.75" y="-192.85" font-family="Sans-Serif" font-size="13.00" fill="#2d3436">Section Detection</text>
<text xml:space="preserve" text-anchor="middle" x="408.75" y="-176.35" font-family="Sans-Serif" font-size="13.00" fill="#2d3436">(Abstract, Intro, Methods)</text>
</g>
<!-- 8ae852df5a2f4ef4b46b1190ff5e9f16&#45;&gt;e8926e649c23471f9754a160bd0dc1ae -->
<g id="edge1" class="edge">
<title>8ae852df5a2f4ef4b46b1190ff5e9f16&#45;&gt;e8926e649c23471f9754a160bd0dc1ae</title>
<path fill="none" stroke="#7b8894" d="M299.07,-255C299.07,-255 347.02,-255 347.02,-255"/>
<polygon fill="#7b8894" stroke="#7b8894" points="347.02,-258.5 357.02,-255 347.02,-251.5 347.02,-258.5"/>
</g>
<!-- 9f132cc965124c3e80e107c2f17948e0 -->
<g id="node4" class="node">
<title>9f132cc965124c3e80e107c2f17948e0</title>
<image xlink:href="D:\thesis\thesis-claim-analyzer\venv\lib\site-packages\resources/programming/flowchart\action.png" width="100.8px" height="100.8px" preserveAspectRatio="xMinYMin meet" x="619.15" y="-388.4"/>
<text xml:space="preserve" text-anchor="middle" x="669.55" y="-275.85" font-family="Sans-Serif" font-size="13.00" fill="#2d3436">Keyword Detector</text>
<text xml:space="preserve" text-anchor="middle" x="669.55" y="-259.35" font-family="Sans-Serif" font-size="13.00" fill="#2d3436">(Rule&#45;based)</text>
</g>
<!-- e8926e649c23471f9754a160bd0dc1ae&#45;&gt;9f132cc965124c3e80e107c2f17948e0 -->
<g id="edge10" class="edge">
<title>e8926e649c23471f9754a160bd0dc1ae&#45;&gt;9f132cc965124c3e80e107c2f17948e0</title>
<path fill="none" stroke="#666666" stroke-width="2" d="M459.03,-296.5C459.03,-296.5 606.39,-296.5 606.39,-296.5"/>
<polygon fill="#666666" stroke="#666666" stroke-width="2" points="606.39,-300 616.39,-296.5 606.39,-293 606.39,-300"/>
<text xml:space="preserve" text-anchor="middle" x="539.15" y="-306.15" font-family="Sans-Serif" font-size="13.00" fill="#2d3436">Extract sentences</text>
</g>
<!-- b4791d077d9645288ee55423751bce44 -->
<g id="node6" class="node">
<title>b4791d077d9645288ee55423751bce44</title>
<image xlink:href="D:\thesis\thesis-claim-analyzer\venv\lib\site-packages\resources/programming/flowchart\action.png" width="100.8px" height="100.8px" preserveAspectRatio="xMinYMin meet" x="619.15" y="-186.4"/>
<text xml:space="preserve" text-anchor="middle" x="669.55" y="-73.85" font-family="Sans-Serif" font-size="13.00" fill="#2d3436">BERT Detector</text>
<text xml:space="preserve" text-anchor="middle" x="669.55" y="-57.35" font-family="Sans-Serif" font-size="13.00" fill="#2d3436">(ML &#45; Future Work)</text>
</g>
<!-- e8926e649c23471f9754a160bd0dc1ae&#45;&gt;b4791d077d9645288ee55423751bce44 -->
<g id="edge11" class="edge">
<title>e8926e649c23471f9754a160bd0dc1ae&#45;&gt;b4791d077d9645288ee55423751bce44</title>
<path fill="none" stroke="#666666" stroke-width="2" stroke-dasharray="5,2" d="M459.03,-195.5C459.03,-195.5 606.39,-195.5 606.39,-195.5"/>
<polygon fill="#666666" stroke="#666666" stroke-width="2" points="606.39,-199 616.39,-195.5 606.39,-192 606.39,-199"/>
<text xml:space="preserve" text-anchor="middle" x="539.15" y="-212.15" font-family="Sans-Serif" font-size="13.00" fill="#2d3436">Extract sentences</text>
</g>
<!-- aaad5516ce174c1ca28e0ac64ec1095a -->
<g id="node5" class="node">
<title>aaad5516ce174c1ca28e0ac64ec1095a</title>
<image xlink:href="D:\thesis\thesis-claim-analyzer\venv\lib\site-packages\resources/programming/flowchart\action.png" width="100.8px" height="100.8px" preserveAspectRatio="xMinYMin meet" x="778.95" y="-287.4"/>
<text xml:space="preserve" text-anchor="middle" x="829.35" y="-174.85" font-family="Sans-Serif" font-size="13.00" fill="#2d3436">Claim Classification</text>
<text xml:space="preserve" text-anchor="middle" x="829.35" y="-158.35" font-family="Sans-Serif" font-size="13.00" fill="#2d3436">6 Types</text>
</g>
<!-- 9f132cc965124c3e80e107c2f17948e0&#45;&gt;aaad5516ce174c1ca28e0ac64ec1095a -->
<g id="edge2" class="edge">
<title>9f132cc965124c3e80e107c2f17948e0&#45;&gt;aaad5516ce174c1ca28e0ac64ec1095a</title>
<path fill="none" stroke="#7b8894" d="M719.67,-287.5C719.67,-287.5 767.62,-287.5 767.62,-287.5"/>
<polygon fill="#7b8894" stroke="#7b8894" points="767.62,-291 777.62,-287.5 767.62,-284 767.62,-291"/>
</g>
<!-- 537a31b33b5344498a0c068ca1083f2f -->
<g id="node7" class="node">
<title>537a31b33b5344498a0c068ca1083f2f</title>
<image xlink:href="D:\thesis\thesis-claim-analyzer\venv\lib\site-packages\resources/generic/compute\rack.png" width="100.8px" height="100.8px" preserveAspectRatio="xMinYMin meet" x="938.75" y="-287.4"/>
<text xml:space="preserve" text-anchor="middle" x="989.15" y="-172.75" font-family="Sans-Serif" font-size="13.00" fill="#2d3436">Trust Calculator</text>
</g>
<!-- aaad5516ce174c1ca28e0ac64ec1095a&#45;&gt;537a31b33b5344498a0c068ca1083f2f -->
<g id="edge12" class="edge">
<title>aaad5516ce174c1ca28e0ac64ec1095a&#45;&gt;537a31b33b5344498a0c068ca1083f2f</title>
<path fill="none" stroke="#7b8894" d="M879.47,-237C879.47,-237 927.42,-237 927.42,-237"/>
<polygon fill="#7b8894" stroke="#7b8894" points="927.42,-240.5 937.42,-237 927.42,-233.5 927.42,-240.5"/>
</g>
<!-- b4791d077d9645288ee55423751bce44&#45;&gt;aaad5516ce174c1ca28e0ac64ec1095a -->
<g id="edge3" class="edge">
<title>b4791d077d9645288ee55423751bce44&#45;&gt;aaad5516ce174c1ca28e0ac64ec1095a</title>
<path fill="none" stroke="#7b8894" d="M719.67,-186.5C719.67,-186.5 767.62,-186.5 767.62,-186.5"/>
<polygon fill="#7b8894" stroke="#7b8894" points="767.62,-190 777.62,-186.5 767.62,-183 767.62,-190"/>
</g>
<!-- c7d66a1a25e043e4b27927b0a38169ee -->
<g id="node8" class="node">
<title>c7d66a1a25e043e4b27927b0a38169ee</title>
<image xlink:href="D:\thesis\thesis-claim-analyzer\venv\lib\site-packages\resources/programming/flowchart\action.png" width="100.8px" height="100.8px" preserveAspectRatio="xMinYMin meet" x="1098.55" y="-287.4"/>
<text xml:space="preserve" text-anchor="middle" x="1148.95" y="-172.75" font-family="Sans-Serif" font-size="13.00" fill="#2d3436">S_int</text>
</g>
<!-- 537a31b33b5344498a0c068ca1083f2f&#45;&gt;c7d66a1a25e043e4b27927b0a38169ee -->
<g id="edge4" class="edge">
<title>537a31b33b5344498a0c068ca1083f2f&#45;&gt;c7d66a1a25e043e4b27927b0a38169ee</title>
<path fill="none" stroke="#7b8894" d="M1039.27,-237C1039.27,-237 1087.22,-237 1087.22,-237"/>
<polygon fill="#7b8894" stroke="#7b8894" points="1087.22,-240.5 1097.22,-237 1087.22,-233.5 1087.22,-240.5"/>
</g>
<!-- dcc63084dad742efb7fab0685470fdec -->
<g id="node9" class="node">
<title>dcc63084dad742efb7fab0685470fdec</title>
<image xlink:href="D:\thesis\thesis-claim-analyzer\venv\lib\site-packages\resources/programming/flowchart\action.png" width="100.8px" height="100.8px" preserveAspectRatio="xMinYMin meet" x="1258.35" y="-287.4"/>
<text xml:space="preserve" text-anchor="middle" x="1308.75" y="-172.75" font-family="Sans-Serif" font-size="13.00" fill="#2d3436">S_ext</text>
</g>
<!-- c7d66a1a25e043e4b27927b0a38169ee&#45;&gt;dcc63084dad742efb7fab0685470fdec -->
<g id="edge5" class="edge">
<title>c7d66a1a25e043e4b27927b0a38169ee&#45;&gt;dcc63084dad742efb7fab0685470fdec</title>
<path fill="none" stroke="#7b8894" d="M1199.07,-237C1199.07,-237 1247.02,-237 1247.02,-237"/>
<polygon fill="#7b8894" stroke="#7b8894" points="1247.02,-240.5 1257.02,-237 1247.02,-233.5 1247.02,-240.5"/>
</g>
<!-- eed7009dee3e430490139779a1bc8690 -->
<g id="node10" class="node">
<title>eed7009dee3e430490139779a1bc8690</title>
<image xlink:href="D:\thesis\thesis-claim-analyzer\venv\lib\site-packages\resources/programming/flowchart\action.png" width="100.8px" height="100.8px" preserveAspectRatio="xMinYMin meet" x="1418.15" y="-287.4"/>
<text xml:space="preserve" text-anchor="middle" x="1468.55" y="-172.75" font-family="Sans-Serif" font-size="13.00" fill="#2d3436">S_cit</text>
</g>
<!-- dcc63084dad742efb7fab0685470fdec&#45;&gt;eed7009dee3e430490139779a1bc8690 -->
<g id="edge6" class="edge">
<title>dcc63084dad742efb7fab0685470fdec&#45;&gt;eed7009dee3e430490139779a1bc8690</title>
<path fill="none" stroke="#7b8894" d="M1358.87,-237C1358.87,-237 1406.82,-237 1406.82,-237"/>
<polygon fill="#7b8894" stroke="#7b8894" points="1406.82,-240.5 1416.82,-237 1406.82,-233.5 1406.82,-240.5"/>
</g>
<!-- e97cfa063d2f44799aa9d38420fc70d5 -->
<g id="node11" class="node">
<title>e97cfa063d2f44799aa9d38420fc70d5</title>
<image xlink:href="D:\thesis\thesis-claim-analyzer\venv\lib\site-packages\resources/programming/flowchart\action.png" width="100.8px" height="100.8px" preserveAspectRatio="xMinYMin meet" x="1577.95" y="-287.4"/>
<text xml:space="preserve" text-anchor="middle" x="1628.35" y="-172.75" font-family="Sans-Serif" font-size="13.00" fill="#2d3436">S_meth</text>
</g>
<!-- eed7009dee3e430490139779a1bc8690&#45;&gt;e97cfa063d2f44799aa9d38420fc70d5 -->
<g id="edge7" class="edge">
<title>eed7009dee3e430490139779a1bc8690&#45;&gt;e97cfa063d2f44799aa9d38420fc70d5</title>
<path fill="none" stroke="#7b8894" d="M1518.67,-237C1518.67,-237 1566.62,-237 1566.62,-237"/>
<polygon fill="#7b8894" stroke="#7b8894" points="1566.62,-240.5 1576.62,-237 1566.62,-233.5 1566.62,-240.5"/>
</g>
<!-- b428a09adfc044b58abd14aa8a46acb7 -->
<g id="node12" class="node">
<title>b428a09adfc044b58abd14aa8a46acb7</title>
<image xlink:href="D:\thesis\thesis-claim-analyzer\venv\lib\site-packages\resources/programming/flowchart\action.png" width="100.8px" height="100.8px" preserveAspectRatio="xMinYMin meet" x="1737.75" y="-287.4"/>
<text xml:space="preserve" text-anchor="middle" x="1788.15" y="-172.75" font-family="Sans-Serif" font-size="13.00" fill="#2d3436">S_rep</text>
</g>
<!-- e97cfa063d2f44799aa9d38420fc70d5&#45;&gt;b428a09adfc044b58abd14aa8a46acb7 -->
<g id="edge8" class="edge">
<title>e97cfa063d2f44799aa9d38420fc70d5&#45;&gt;b428a09adfc044b58abd14aa8a46acb7</title>
<path fill="none" stroke="#7b8894" d="M1678.47,-237C1678.47,-237 1726.42,-237 1726.42,-237"/>
<polygon fill="#7b8894" stroke="#7b8894" points="1726.42,-240.5 1736.42,-237 1726.42,-233.5 1726.42,-240.5"/>
</g>
<!-- c9de27edf9284d7aaad7388a93b68f45 -->
<g id="node14" class="node">
<title>c9de27edf9284d7aaad7388a93b68f45</title>
<image xlink:href="D:\thesis\thesis-claim-analyzer\venv\lib\site-packages\resources/programming/flowchart\action.png" width="100.8px" height="100.8px" preserveAspectRatio="xMinYMin meet" x="1897.55" y="-287.4"/>
<text xml:space="preserve" text-anchor="middle" x="1947.95" y="-172.75" font-family="Sans-Serif" font-size="13.00" fill="#2d3436">T(C)</text>
</g>
<!-- b428a09adfc044b58abd14aa8a46acb7&#45;&gt;c9de27edf9284d7aaad7388a93b68f45 -->
<g id="edge13" class="edge">
<title>b428a09adfc044b58abd14aa8a46acb7&#45;&gt;c9de27edf9284d7aaad7388a93b68f45</title>
<path fill="none" stroke="#7b8894" d="M1838.27,-237C1838.27,-237 1886.22,-237 1886.22,-237"/>
<polygon fill="#7b8894" stroke="#7b8894" points="1886.22,-240.5 1896.22,-237 1886.22,-233.5 1886.22,-240.5"/>
</g>
<!-- c2793b61832d4a9c93726cee3fe14595 -->
<g id="node13" class="node">
<title>c2793b61832d4a9c93726cee3fe14595</title>
<image xlink:href="D:\thesis\thesis-claim-analyzer\venv\lib\site-packages\resources/generic/database\sql.png" width="100.8px" height="100.8px" preserveAspectRatio="xMinYMin meet" x="2057.35" y="-287.4"/>
<text xml:space="preserve" text-anchor="middle" x="2107.75" y="-172.75" font-family="Sans-Serif" font-size="13.00" fill="#2d3436">Excel Export</text>
</g>
<!-- c9de27edf9284d7aaad7388a93b68f45&#45;&gt;c2793b61832d4a9c93726cee3fe14595 -->
<g id="edge14" class="edge">
<title>c9de27edf9284d7aaad7388a93b68f45&#45;&gt;c2793b61832d4a9c93726cee3fe14595</title>
<path fill="none" stroke="#7b8894" d="M1998.07,-237C1998.07,-237 2046.02,-237 2046.02,-237"/>
<polygon fill="#7b8894" stroke="#7b8894" points="2046.02,-240.5 2056.02,-237 2046.02,-233.5 2046.02,-240.5"/>
</g>
</g>
</svg>
